<svg width="80" height="56" viewBox="0 0 80 56" fill="none" xmlns="http://www.w3.org/2000/svg">
<path d="M47.9842 34.251C49.1655 32.8487 50.2483 31.4902 51.2437 30.1756L16.1443 30.0879C20.9788 31.8956 32.201 34.1633 47.9842 34.251Z" fill="white"/>
<path d="M42.7449 40.2864C43.9262 38.8842 45.2278 37.5258 46.1794 36.2112L0 36.1236C4.87826 37.9202 26.9945 40.1878 42.7449 40.2864Z" fill="white"/>
<path d="M52.4679 28.6859C53.4632 27.2836 54.371 25.9689 55.1367 24.7419L27.7266 24.6543C32.5611 26.4619 39.5284 28.5982 52.4679 28.6859Z" fill="white"/>
<path d="M56.176 23.0219C56.7667 21.9811 57.3026 20.9403 57.8058 19.9872L39.3975 19.9434C42.7882 21.2032 47.6664 22.7042 56.176 23.0219Z" fill="white"/>
<path d="M58.5272 18.3107C58.9319 17.3575 59.2491 16.4482 59.5225 15.5936L45.9487 15.5498C48.6176 16.5358 52.2817 17.9053 58.5272 18.3107Z" fill="white"/>
<path d="M49.657 11.5076C51.8336 12.4607 54.8634 13.7315 60.0151 14.093C60.2448 13.1837 60.4198 12.3292 60.5073 11.5514L49.657 11.5076Z" fill="white"/>
<path d="M60.5615 10.3796C60.6053 9.65659 60.6053 8.93359 60.5178 8.29821L52.6426 8.25439C54.2723 9.02122 56.5802 10.0619 60.5615 10.3796Z" fill="white"/>
<path d="M60.4302 7.25688C60.3427 6.62146 60.1567 6.02986 59.9817 5.53687H54.1519C55.3988 6.16133 57.2144 7.11446 60.4302 7.25688Z" fill="white"/>
<path d="M59.7524 4.84684C59.5227 4.29908 59.2602 3.84992 58.9867 3.40076H54.7319C55.6726 3.99234 57.1273 4.84684 59.7524 4.84684Z" fill="white"/>
<path d="M58.4395 2.99557C58.5271 2.99557 58.5708 2.99557 58.6692 2.99557C58.352 2.54641 58.0349 2.18489 57.7177 1.91101H55.0488C55.716 2.31635 56.6676 2.99557 58.4395 2.99557Z" fill="white"/>
<path d="M56.6679 0.858887C56.6679 0.858887 57.3461 1.13277 58.2102 1.85583H60.693C60.693 1.85583 60.6493 2.66653 59.2492 2.89659C59.3805 3.08283 59.5227 3.2143 59.6539 3.38959H63.2306C63.2306 3.38959 63.1431 4.61659 60.5618 4.79188C60.693 5.02194 60.7915 5.24105 60.879 5.47111H65.9869C65.9869 5.47111 65.8994 7.19111 61.5134 7.19111H61.4696C61.5571 7.50882 61.6009 7.82653 61.6556 8.18805L69.0276 8.23188C69.0276 8.23188 68.8964 10.3572 62.7822 10.3572C62.4212 10.3572 62.104 10.3572 61.7868 10.3572C61.7868 10.7188 61.7868 11.0803 61.7431 11.4418L71.423 11.4856C71.423 11.4856 71.2371 14.1149 63.0994 14.1149C62.465 14.1149 61.8743 14.1149 61.3384 14.0711C61.2509 14.5203 61.1087 14.9804 60.9774 15.4734L72.6481 15.5172C72.6481 15.5172 72.4184 18.3218 62.4212 18.3218C61.6118 18.3218 60.7915 18.3218 60.0258 18.278C59.8399 18.771 59.6211 19.3187 59.3477 19.8665L72.1996 19.9103C72.1996 19.9103 71.9262 22.945 59.5774 22.945C58.9867 22.945 58.4508 22.945 57.8601 22.945C57.5867 23.4928 57.2695 24.0296 56.9523 24.6212L69.6511 24.6979C69.6511 24.6979 69.2901 28.4556 54.4476 28.598C54.0866 29.1458 53.6819 29.7264 53.2663 30.318H64.8494C64.8494 30.318 64.5322 34.0757 50.2365 34.3057C48.6505 36.2996 44.8114 40.7366 43.9473 41.7335H69.5527C70.8652 39.9697 79.4623 27.864 79.4623 17.8617C79.5607 6.98296 66.5338 1.23137 56.6679 0.858887Z" fill="white"/>
<path d="M66.6206 30.8551C66.6206 30.8551 66.0737 30.2635 66.0299 30.2197C65.669 29.7705 65.3518 29.0913 65.669 28.5435C65.8002 28.3134 66.0737 28.1381 66.3034 28.0943C66.4346 28.0505 66.5768 28.0505 66.7081 28.0943C66.9815 28.182 67.0253 28.412 66.9378 28.6421C66.8503 28.8722 66.8065 29.0913 67.1237 29.0913C67.6159 29.0913 67.7581 28.5983 67.4847 28.2258C66.894 27.4589 65.4065 27.5904 65.1768 28.5873C65.0455 29.1789 65.3627 29.7705 65.7674 30.132C65.9862 30.4498 66.3034 30.6798 66.6206 30.8551Z" fill="white"/>
<path d="M70.3725 40.9126C70.3288 40.9126 70.3288 40.8687 70.3288 40.7811C70.285 40.551 70.2413 40.3319 70.1975 40.1019C70.1975 40.0142 70.1975 39.8718 70.0663 39.8718C69.8366 39.8718 69.6616 39.9156 69.4319 39.8718C69.3444 39.8718 69.3881 39.828 69.4319 39.828C69.5194 39.828 69.5631 39.828 69.6616 39.7841C69.7053 39.7841 69.7491 39.7841 69.7491 39.7403C69.7928 39.6965 69.7491 39.6527 69.7491 39.6527C69.7491 39.6089 69.7053 39.6089 69.6616 39.565C69.6178 39.5212 69.6178 39.5212 69.5741 39.5212C69.5741 39.5212 69.5303 39.2911 69.3006 39.2473C69.3006 39.2473 69.2569 38.9734 69.2569 38.7982C69.2569 38.6229 69.2569 38.5681 69.2569 38.5681L69.3006 38.4366C69.3006 38.4366 69.4319 38.3928 69.4319 38.2066C69.4319 38.2066 69.6178 38.1627 69.6178 37.9327C69.6178 37.9327 70.0663 37.7464 70.0663 37.2534C70.0663 36.8481 69.6616 36.7604 69.4756 36.7057C69.4756 36.6618 69.4319 36.5742 69.4319 36.5194C69.4319 36.2017 69.5631 35.9716 69.9241 35.6539L69.8803 35.5663C69.8803 35.5225 69.9678 35.4786 69.8803 35.4786C69.7928 35.4786 69.6506 35.5225 69.5631 35.4786C69.4756 35.4786 69.5631 35.4348 69.6069 35.4348C69.7381 35.391 69.9241 35.391 70.0553 35.3472C70.285 35.3034 70.5038 35.2157 70.6897 35.1171C70.8757 35.0185 71.0944 34.8871 71.2366 34.7118C71.3241 34.6241 71.3241 34.4817 71.3241 34.3502C71.3241 34.1202 71.1929 33.9449 71.0069 33.8025C70.821 33.671 70.6022 33.6162 70.4163 33.5724C70.2303 33.5286 70.0553 33.5286 69.8256 33.5286C69.7819 33.5286 69.6944 33.5286 69.6397 33.5286C69.6397 33.5286 69.6397 33.5286 69.6835 33.5286C69.771 33.4848 69.9132 33.5286 70.0007 33.4848C69.9569 33.2109 69.6835 33.0794 69.4538 33.0356C69.41 33.0356 69.3225 32.9918 69.2241 33.0356C69.1803 33.0356 69.0928 33.0356 69.0381 33.0356C68.9834 33.0356 68.9506 33.0356 69.0381 32.9918C69.1256 32.9479 69.2241 32.9479 69.3116 32.9479V32.8603C69.4428 32.8165 69.585 32.4111 69.3116 31.8633C69.0381 31.3156 68.8194 30.954 68.8194 30.954C68.8194 30.954 69.0491 30.9979 69.0491 30.8226C69.0491 30.6911 68.8194 30.6911 68.8194 30.6911C68.8194 30.3296 69.3663 30.0995 69.3663 30.0995C69.3663 30.0119 69.2788 29.9133 69.0928 29.8695C69.0928 29.5079 69.6397 29.234 69.9022 29.1026C70.1319 28.9711 70.4929 29.0587 70.4929 29.0587C70.4929 29.0587 70.6241 28.8287 70.4054 28.511C70.1757 28.1933 69.8147 28.1933 69.7272 28.1933C69.6397 28.1933 69.0928 28.2371 68.2397 28.741C67.4303 29.234 67.2443 29.234 66.8396 29.1026C66.7521 29.3765 66.9709 29.4203 67.0256 29.4641C67.1568 29.5517 67.6162 29.6942 67.6162 29.9133C67.3865 29.9571 67.3428 30.0995 67.3865 30.1433C67.3865 30.1433 67.7475 30.1872 67.9334 30.7349C67.8459 30.7349 67.7037 30.7349 67.7037 30.8664C67.7037 30.9979 67.835 30.9979 67.9334 30.9979C67.9334 30.9979 67.7475 31.3156 67.3865 31.9948C67.3428 32.0386 67.5725 31.2718 66.3474 30.6802C67.0256 31.2718 67.1131 31.7209 67.0693 32.0386C66.9818 32.3563 66.3912 32.6741 66.1615 32.2249C66.2927 32.2249 66.3474 32.0934 66.3474 31.9948C66.3474 31.8633 66.2599 31.7647 66.1615 31.7647C66.074 31.7647 65.8443 31.7647 65.8443 32.1701C65.8443 32.4878 66.2927 32.6631 66.2927 32.6631C66.2927 32.6631 65.8443 32.7507 65.8443 33.1561C65.8443 33.6053 66.249 33.7477 66.2927 33.7477C66.2927 33.7477 66.249 33.7477 66.1615 33.7915C65.8443 33.923 65.5271 34.153 65.5271 34.5146C65.5271 35.0623 66.3365 35.2815 66.5662 35.38C66.7959 35.4677 67.1131 35.6101 66.9709 35.7416C67.3756 36.0593 67.5178 36.2346 67.5178 36.5523C67.5178 36.6399 67.5178 36.6837 67.474 36.7823C67.2443 36.8262 66.8834 36.9686 66.8834 37.2753C66.8834 37.5931 67.0693 37.8231 67.3318 37.9546C67.3318 38.1408 67.5178 38.1846 67.5178 38.1846C67.5178 38.1846 67.5178 38.3161 67.649 38.3709L67.7365 38.5024C67.7365 38.5024 67.7365 38.9077 67.6928 39.2254C67.4193 39.2692 67.4193 39.4993 67.4193 39.4993C67.4193 39.4993 67.2334 39.5431 67.2334 39.7294L66.8287 39.817L66.6428 40.8578C66.6428 40.8578 66.5115 40.9016 66.5115 41.0878L66.3802 41.6794H70.635L70.5038 41.044C70.5147 41.055 70.471 40.9673 70.3725 40.9126Z" fill="white"/>
<path d="M43.5115 42.2687L37.3645 49.4227H64.184C64.184 49.4227 67.2137 45.1172 69.2482 42.2687H43.5115V42.2687Z" fill="white"/>
<path d="M45.5013 48.2511H43.959L44.7247 44.5809H43.3684L43.5981 43.321H47.8967L47.6232 44.5809H46.2669L45.5013 48.2511Z" fill="white"/>
<path d="M51.5611 48.2511H47.3938L48.4438 43.321H52.5564L52.283 44.5809H49.7017L49.5704 45.1725H51.9658L51.7361 46.3557H49.3407L49.2095 46.9912H51.8345L51.5611 48.2511Z" fill="white"/>
<path d="M56.2202 43.321H54.7327L51.8779 48.3059H53.4202L53.7811 47.5828H55.4108L55.4983 48.3059H56.9859L56.2202 43.321ZM54.3171 46.4873L55.0827 44.9973L55.2686 46.4873H54.3171Z" fill="white"/>
<path d="M63.0456 48.2511H61.6018L62.3674 44.8548L60.7377 48.2511H59.6111L59.4361 44.8548L58.7579 48.2511H57.3032L58.3423 43.321H60.4752L60.5627 45.9394L61.919 43.321H64.0956L63.0456 48.2511Z" fill="white"/>
<path d="M6.63899 50.5189H8.18122L9.13281 53.2796L9.71251 50.5189H11.211L10.1281 55.5911H8.58592L7.67808 52.7428H7.63433L7.04369 55.5911H5.55615L6.63899 50.5189Z" fill="white"/>
<path d="M12.3813 50.5189H16.5924L16.3189 51.7897H13.6501L13.5626 52.4251H16.0017L15.7392 53.6521H13.2891L13.1579 54.2765H15.8267L15.5533 55.5911H11.2985L12.3813 50.5189Z" fill="white"/>
<path d="M21.3836 55.5911H19.8961V52.9619L18.7695 55.5911H17.271L16.91 50.5189H18.4523V53.4658L19.6664 50.5189H21.0226V53.4658L22.2477 50.5189H23.8337L21.3836 55.5911Z" fill="white"/>
<path d="M25.5947 54.2766L28.4057 51.7898H26.2291L26.5026 50.519H30.8011L30.5714 51.7898L27.6292 54.2766H30.123L29.8495 55.5912H25.3213L25.5947 54.2766Z" fill="white"/>
<path d="M31.6104 50.519H35.8214L35.548 51.7898H32.9229L32.7917 52.4252H35.2308L35.0011 53.6522H32.562L32.376 54.2766H35.0995L34.8261 55.5912H30.5713L31.6104 50.519Z" fill="white"/>
<path d="M38.1725 50.519H39.7147L40.5241 55.5912H38.9819L38.8944 54.8682H37.2209L36.8162 55.5912H35.2302L38.1725 50.519ZM37.7678 53.7837H38.7631L38.5772 52.239L37.7678 53.7837Z" fill="white"/>
<path d="M42.0554 50.519H43.6414L42.8758 54.2766H45.0962L44.8227 55.5912H41.0164L42.0554 50.519Z" fill="white"/>
<path d="M48.487 50.5189H50.0292L50.7949 55.5911H49.2526L49.1651 54.8681H47.4917L47.087 55.5911H45.501L48.487 50.5189ZM48.0823 53.7835H49.0776L48.8917 52.2389L48.0823 53.7835Z" fill="white"/>
<path d="M52.2825 50.5189H53.8247L54.7763 53.2796H54.8201L55.356 50.5189H56.8545L55.8154 55.5911H54.2732L53.3216 52.7428L52.7309 55.5911H51.2434L52.2825 50.5189Z" fill="white"/>
<path d="M58.1671 50.5189H60.5187C61.4703 50.5189 62.6407 51.1105 62.5532 52.7867C62.4657 54.4628 61.4266 55.646 59.6546 55.646H57.1171L58.1671 50.5189ZM58.9327 54.2766H59.6984C60.7375 54.2766 60.9672 53.2358 60.9672 52.7319C60.9672 51.965 60.5625 51.7788 60.0593 51.7788H59.4796L58.9327 54.2766Z" fill="white"/>
<path fill-rule="evenodd" clip-rule="evenodd" d="M34.8707 49.3032H6.55273V41.8643H41.2912L34.8707 49.3032ZM10.808 47.1671H11.8471C12.5252 47.1671 12.7002 46.8494 12.7112 46.7946V47.0685C12.7112 47.2985 12.5252 47.6601 12.033 47.6601H9.76891C9.76891 47.6601 9.49547 47.6163 9.49547 46.937V44.1763C9.53922 43.4532 9.13452 43.1355 9.13452 43.1355H11.3986C12.5799 43.1355 12.6674 43.9462 12.6674 43.9462C12.1643 43.6285 11.6721 43.6285 11.0814 43.6285H10.4033C10.4908 43.7709 10.4908 44.1763 10.4908 44.1763V44.3625V44.6802H10.983C11.7049 44.6802 11.9783 45.3156 11.9783 45.3156C11.7132 45.1691 11.4175 45.1757 11.1424 45.1818C11.0883 45.183 11.0351 45.1842 10.983 45.1842H10.4908V46.6741C10.4908 46.8932 10.4908 47.1671 10.808 47.1671ZM17.9506 46.9372V44.9873C17.9506 44.2642 17.3162 44.0342 16.8677 44.0342C16.3365 44.0342 16.1415 44.433 16.036 44.6487C16.0242 44.6728 16.0136 44.6947 16.0037 44.7134C15.8724 44.2642 15.413 44.0342 15.0083 44.0342C14.2864 44.0342 14.1005 44.7134 14.1005 44.7134C14.1005 44.7134 14.1005 44.0342 13.5098 44.0342H12.9192C12.9192 44.0342 13.2364 44.1657 13.2364 44.7572V46.8825C13.2364 47.6055 13.5098 47.6055 13.5098 47.6055H14.4614C14.4177 47.6055 14.1005 47.3316 14.1005 46.8825V44.9763C14.1005 44.8887 14.2317 44.6148 14.6911 44.6148C14.9208 44.6148 15.1833 44.8449 15.1396 45.1078V46.8715C15.1396 47.5945 15.413 47.5945 15.413 47.5945H16.3646C16.3646 47.5945 16.0037 47.3207 16.0037 46.8715V44.9654C16.0474 44.8777 16.1896 44.6039 16.4959 44.6039C16.7693 44.6039 17.0427 44.8339 17.0427 45.0968V46.8606C17.0427 47.5836 17.3162 47.5836 17.3162 47.5836H18.2678C18.2678 47.5836 17.9506 47.3973 17.9506 46.9372ZM20.1275 47.6603C20.1275 47.6603 19.7664 47.4303 19.7664 46.9373V44.8449C19.7664 44.0342 19.3177 44.0342 19.1317 44.0342H18.5408C18.5408 44.0342 18.8581 44.1657 18.8581 44.7572V46.9373C18.8581 47.6603 19.1755 47.6603 19.1755 47.6603H20.1275ZM22.7962 44.3624C22.7962 44.3624 22.7087 44.0885 22.304 44.0885C21.7134 44.0885 21.5822 44.8116 21.5822 44.8116C21.5384 44.2638 21.3962 44.0885 20.9478 44.0885H20.4009C20.4009 44.0885 20.7181 44.22 20.7181 44.8116V46.937C20.7181 47.6601 20.9915 47.6601 20.9915 47.6601H21.9431C21.8993 47.6601 21.5822 47.3862 21.5822 46.937V45.1732C21.6259 44.9869 21.6697 44.8993 21.8118 44.8116C22.129 44.6254 22.5337 44.6801 22.8072 44.9431L22.7962 44.3624ZM28.0022 44.5813C28.0022 44.5813 27.7725 44.4498 27.4553 44.4498H27.2474V46.9367C27.2474 47.3859 27.6084 47.6159 27.6084 47.6159H26.6568C26.6568 47.6159 26.3834 47.6159 26.3834 46.9367V44.4389H25.7927C25.7927 44.4389 26.3287 44.176 26.6021 43.9459C27.0068 43.5844 27.2365 43.2228 27.2365 43.2228V44.0335H28.0022V44.5813ZM30.4845 45.5349C30.2048 45.8151 29.9622 45.9262 29.7495 46.0236C29.5465 46.1165 29.3707 46.197 29.2158 46.4004C29.2158 46.4004 29.2595 46.9481 29.708 47.1234L29.7238 47.1288C29.8812 47.1826 30.4428 47.3745 30.7908 46.7619V47.3534C30.7908 47.3534 30.5611 47.6273 29.7955 47.6273C28.8439 47.6273 28.2095 46.9043 28.2095 45.9074C28.2095 44.9105 28.7564 44.045 29.697 44.0012C30.6595 44.045 31.1627 44.8119 30.4845 45.5349ZM29.8939 45.3158C30.0252 45.0419 30.1673 44.2751 29.6205 44.3189C28.9861 44.3627 29.1283 46.0388 29.1283 46.0388C29.2051 45.958 29.2941 45.9002 29.3871 45.8397C29.559 45.728 29.7449 45.6072 29.8939 45.3158ZM32.071 47.2656C32.5194 47.2656 32.7491 46.9479 32.7491 46.674C32.7491 46.4878 32.6507 46.3125 32.4319 46.2248C32.3199 46.1407 32.2035 46.0701 32.0997 46.0071L32.0997 46.0071L32.0997 46.0071L32.0995 46.007C32.0412 45.9716 31.9869 45.9387 31.9397 45.9071C31.5788 45.6333 31.3928 45.3594 31.3928 44.954C31.3928 44.4501 31.9288 44.0885 32.4757 44.0885C33.0226 44.0885 33.3835 44.3624 33.3835 44.3624V44.954C33.3835 44.954 33.1538 44.461 32.7054 44.461C32.2022 44.461 32.1585 44.6911 32.1585 44.8226C32.1585 44.8664 32.246 45.0964 32.4319 45.1841C32.5045 45.2335 32.5862 45.2821 32.6715 45.3329C32.9078 45.4734 33.171 45.6299 33.3397 45.8633C33.4819 46.0496 33.5694 46.2687 33.5694 46.4987C33.6132 47.1889 32.9351 47.6819 32.3007 47.6819C31.7538 47.6819 31.3928 47.408 31.3928 47.408V46.7726C31.3928 46.7726 31.5788 47.2656 32.071 47.2656ZM19.3063 43.727C19.5361 43.727 19.755 43.5408 19.755 43.2778C19.755 43.0478 19.569 42.8725 19.3063 42.8725C19.0765 42.8725 18.8577 43.0587 18.8577 43.2778C18.8577 43.5408 19.0875 43.727 19.3063 43.727ZM23.5615 46.7619C23.5615 47.1234 23.7366 47.2549 24.0537 47.2549C24.2575 47.2549 24.3884 47.1332 24.46 47.0667C24.4845 47.0439 24.502 47.0276 24.5131 47.0248V45.5349C24.4481 45.6124 24.3435 45.6795 24.2271 45.7541C23.9324 45.9431 23.5615 46.1808 23.5615 46.7619ZM24.12 45.417C24.299 45.3205 24.5569 45.1816 24.5569 44.8556C24.5569 44.6803 24.4256 44.4502 24.0209 44.4612C23.5287 44.4612 23.3428 44.9542 23.3428 44.9542V44.3188C23.3428 44.3188 23.7037 44.0449 24.2506 44.0449C24.7866 44.0449 25.3335 44.4174 25.3335 44.9104V46.9043C25.3335 47.3973 25.6944 47.6274 25.6944 47.6274H24.7428C24.7428 47.6274 24.5131 47.6274 24.4694 47.222C24.3819 47.4412 24.1522 47.6712 23.7475 47.6712C23.2006 47.6712 22.7959 47.3535 22.7959 46.8057C22.7959 46.0181 23.3574 45.7658 23.9036 45.5204C23.9576 45.4961 24.0115 45.4719 24.0647 45.4472C24.0819 45.4375 24.1005 45.4275 24.12 45.417Z" fill="white"/>
</svg>
