<svg width="107" height="20" viewBox="0 0 107 20" fill="none" xmlns="http://www.w3.org/2000/svg">
<path d="M74.3106 8.04507H77.4901C77.596 6.68276 77.4017 5.86892 76.8189 5.2497C76.2006 4.57739 75.3351 4.29431 73.869 4.29431H68.2167L67.2275 14.892H70.407L71.1312 7.07199H73.2155C74.134 7.07199 74.3813 7.30199 74.3106 8.04507Z" fill="white"/>
<path d="M9.85631 7.65639C10.7925 7.65639 11.0751 7.44409 11.1458 6.66564L11.2517 5.55104C11.3224 4.77259 11.0928 4.56028 10.1566 4.56028H4.73389L4.45127 7.65639H9.85631ZM10.9515 1.62341C12.4175 1.62341 13.283 1.90648 13.9013 2.57878C14.5195 3.25108 14.6961 4.11799 14.5548 5.60412L14.4665 6.59487C14.2369 9.14252 13.3537 10.2394 11.3047 10.5579L14.0779 14.8924H10.3686L7.86033 10.5756H4.16866L3.76239 14.8924H0.44165L1.6781 1.62341H10.9515Z" fill="white"/>
<path d="M54.3858 5.24968C53.7676 4.57739 52.9021 4.29431 51.4183 4.29431H49.2104C47.974 4.29431 47.2851 4.55969 46.6669 5.2143C46.1016 4.47123 45.5011 4.29431 43.4874 4.29431H35.2209L31.7412 10.5219L29.4096 4.29431H25.9829L29.8158 14.0426L28.809 15.8649C28.5617 16.3072 28.1908 16.4841 27.4843 16.4841H25.0467L24.7817 19.2617H27.4666C29.5862 19.2617 30.4164 18.7664 31.5822 16.7318L38.153 5.23199L37.2522 14.8741H40.4316L41.1558 7.05427H43.8054C44.7415 7.05427 44.9712 7.26657 44.9005 8.04502L44.2646 14.8741H47.4441L48.0799 8.04502C48.1506 7.26657 48.4332 7.05427 49.4047 7.05427H50.7825C51.754 7.05427 52.0012 7.26657 51.9129 8.04502L51.277 14.8741H54.4565L55.0747 8.25732C55.1807 6.78889 55.004 5.92198 54.3858 5.24968Z" fill="white"/>
<path d="M78.5853 4.29431H81.7471L80.758 14.892H77.5962L78.5853 4.29431Z" fill="white"/>
<path d="M89.9956 8.08119C90.0663 7.30273 89.8366 7.09043 88.9005 7.09043H85.8624L85.1382 14.9104H81.9587L82.9479 4.31274H89.554C91.0201 4.31274 91.8856 4.59582 92.5038 5.26812C93.1221 5.92274 93.2987 6.80735 93.1574 8.2935L92.5392 14.9104H89.3597L89.9956 8.08119Z" fill="white"/>
<path d="M102.024 7.86888C102.095 7.07273 101.883 6.86042 100.929 6.86042H98.5447C97.6085 6.86042 97.3259 7.07273 97.2552 7.86888L97.2022 8.5235H101.971L102.024 7.86888ZM104.692 11.7789C104.25 13.9904 103.014 14.9104 100.452 14.9104H97.5379C96.0718 14.9104 95.2063 14.6273 94.5881 13.955C93.9698 13.3004 93.7932 12.4512 93.9345 10.912L94.1818 8.2935C94.3231 6.78966 94.6587 5.92274 95.4006 5.26812C96.1424 4.59582 97.0609 4.31274 98.527 4.31274H101.441C102.908 4.31274 103.773 4.59582 104.391 5.25044C105.01 5.90505 105.186 6.71889 105.045 8.2935L104.815 10.6643H96.9903L96.9373 11.3189C96.8666 12.115 97.0963 12.3273 98.0324 12.3273H100.435C101.194 12.3273 101.512 12.2035 101.636 11.7966L104.692 11.7789Z" fill="white"/>
<path d="M22.3441 12.2912C22.3441 12.2912 22.0968 12.3089 21.1607 12.3089H18.7761C17.8223 12.3089 17.575 12.0966 17.6809 11.3004C17.6809 11.3004 17.7693 10.6635 18.4228 10.6458H22.5208L22.3441 12.2912ZM25.1173 5.28508C24.4991 4.61277 23.6336 4.29431 22.1675 4.29431H19.518C16.9567 4.29431 15.7203 5.232 15.2787 7.44353L18.3168 7.42584C18.4405 7.01892 18.7584 6.85968 19.518 6.85968H21.6729C22.6091 6.85968 22.821 7.08968 22.7327 7.92122L22.6797 8.52276H17.7339C14.7841 8.57583 14.6782 10.9466 14.6782 10.9466C14.5368 12.5212 14.7135 13.335 15.3317 13.9897C15.9499 14.6443 16.8154 14.892 18.2815 14.892H25.1879C25.1879 14.892 25.3999 12.4504 25.5412 10.9466L25.7885 8.32814C25.9121 6.78892 25.7355 5.93969 25.1173 5.28508Z" fill="white"/>
<path d="M63.3241 12.2912C63.3241 12.2912 63.0768 12.3089 62.1407 12.3089H59.7561C58.8022 12.3089 58.555 12.0966 58.6609 11.3004C58.6609 11.3004 58.7493 10.6635 59.4028 10.6458H63.5007L63.3241 12.2912ZM66.0973 5.28508C65.4791 4.61277 64.6135 4.29431 63.1475 4.29431H60.4979C57.9367 4.29431 56.7003 5.232 56.2587 7.44353L59.2968 7.42584C59.4205 7.01892 59.7384 6.85968 60.4979 6.85968H62.6529C63.5891 6.85968 63.801 7.08968 63.7127 7.92122L63.6597 8.52276H58.7139C55.7641 8.57583 55.6581 10.9466 55.6581 10.9466C55.5168 12.5212 55.6935 13.335 56.3117 13.9897C56.9299 14.6443 57.7954 14.892 59.2615 14.892H66.1679C66.1679 14.892 66.3799 12.4504 66.5212 10.9466L66.7685 8.32814C66.8921 6.78892 66.7155 5.93969 66.0973 5.28508Z" fill="white"/>
<path d="M78.9035 0.703369H83.6374C83.6374 0.703369 82.4362 3.53403 78.6562 3.33943L78.9035 0.703369Z" fill="white"/>
<path d="M105.893 4.2237C105.858 4.206 105.805 4.18831 105.734 4.18831H105.628V4.4537H105.734C105.787 4.4537 105.823 4.4537 105.858 4.43601C105.911 4.41831 105.929 4.38293 105.929 4.32985C105.946 4.27677 105.929 4.24139 105.893 4.2237ZM105.77 4.11754C105.858 4.11754 105.929 4.13523 105.964 4.13523C106.035 4.17062 106.07 4.2237 106.07 4.31216C106.07 4.38293 106.052 4.41832 105.999 4.4537C105.982 4.47139 105.946 4.48908 105.893 4.48908C105.946 4.50677 105.982 4.52447 106.017 4.55985C106.035 4.59524 106.052 4.63062 106.052 4.66601V4.71909C106.052 4.73678 106.052 4.75447 106.052 4.77216C106.052 4.78985 106.052 4.80755 106.052 4.80755H105.929V4.78986V4.73678C105.929 4.64831 105.911 4.59524 105.858 4.57754C105.84 4.55985 105.787 4.55985 105.717 4.55985H105.611V4.84293H105.487V4.13523H105.77V4.11754ZM105.381 4.08216C105.275 4.18831 105.222 4.32985 105.222 4.47139C105.222 4.63062 105.275 4.75447 105.381 4.87832C105.487 4.98447 105.628 5.03755 105.77 5.03755C105.929 5.03755 106.052 4.98447 106.158 4.87832C106.264 4.77216 106.317 4.63062 106.317 4.47139C106.317 4.31216 106.264 4.18831 106.158 4.08216C106.052 3.976 105.911 3.92293 105.77 3.92293C105.628 3.90524 105.487 3.976 105.381 4.08216ZM106.229 4.93139C106.105 5.05524 105.946 5.12601 105.77 5.12601C105.593 5.12601 105.434 5.05524 105.31 4.93139C105.186 4.80755 105.116 4.64831 105.116 4.47139C105.116 4.29446 105.186 4.13524 105.31 4.01139C105.434 3.88754 105.593 3.81677 105.77 3.81677C105.946 3.81677 106.105 3.88754 106.229 4.01139C106.353 4.13524 106.423 4.29446 106.423 4.47139C106.423 4.64831 106.37 4.80755 106.229 4.93139Z" fill="white"/>
</svg>
