<svg width="161" height="30" viewBox="0 0 161 30" fill="none" xmlns="http://www.w3.org/2000/svg">
<path fill-rule="evenodd" clip-rule="evenodd" d="M62.3457 16.6622C62.4606 15.2962 62.5262 14.5444 62.6309 13.1248C62.7817 12.0122 64.0447 12.1564 63.923 13.274L63.7625 15.9236H62.7589L62.6574 17.2018H67.5709L67.8103 13.8965C67.7644 12.1405 66.5603 11.4581 66.1306 11.2709C65.6977 11.0764 65.1664 11.0682 65.1664 11.0682H60.7484C60.3087 11.0628 57.8586 11.4514 57.4748 14.471C57.4289 14.8713 57.091 18.2138 57.091 18.2138C56.9139 19.831 57.5799 22.0146 60.299 22.283H66.3932L66.4947 20.974C65.37 20.974 64.2514 20.9795 63.1328 20.974C62.7983 20.9849 61.9818 20.9967 62.067 19.8351C62.1883 18.4196 62.2735 17.4394 62.3457 16.6622Z" fill="white"/>
<path fill-rule="evenodd" clip-rule="evenodd" d="M93.3233 14.8591C93.481 13.747 93.4971 12.3355 95.147 12.3877H98.0238L98.1223 11.0683H91.9558C90.8534 11.071 88.7114 11.4514 88.3247 14.471C88.2757 14.8714 87.9473 18.2139 87.9473 18.2139C87.7671 19.8311 88.5246 22.2042 91.2569 22.2831H97.2495L97.3444 20.9741C97.3444 20.9741 95.7011 20.9809 94.5764 20.9741C93.3496 20.9583 92.8805 20.1639 92.9826 18.8708C93.0576 17.5773 93.2118 16.3377 93.3233 14.8591Z" fill="white"/>
<path fill-rule="evenodd" clip-rule="evenodd" d="M47.5962 12.7172C47.5337 12.9017 46.8512 20.3864 46.8713 20.5497C46.8842 21.5948 47.7534 22.2776 48.518 22.283H51.7092L52.3421 15.0092C52.4439 13.7791 53.1228 13.3424 53.7131 13.3506L56.6817 13.3515L56.954 11.0682H55.3893C53.7889 11.0709 53.0572 11.761 52.5455 12.7598L52.5521 12.6374L52.7193 11.0682H49.6557C48.6229 11.0614 47.783 11.8041 47.5962 12.7172Z" fill="white"/>
<path fill-rule="evenodd" clip-rule="evenodd" d="M81.2149 20.5497C81.2345 21.5948 82.1628 22.2681 82.9759 22.2831H86.0591L87.0136 11.0683C86.3283 11.0628 82.1563 11.0628 82.1563 11.0628C82.1563 11.0628 81.1917 20.3865 81.2149 20.5497Z" fill="white"/>
<path fill-rule="evenodd" clip-rule="evenodd" d="M121.667 10.2522C121.677 9.50454 121.447 8.71105 120.62 7.95116C120.003 7.43296 119.331 7.21576 118.744 7.21668H116.711L115.631 19.939C115.621 20.0591 115.589 20.2319 115.51 20.3797C115.399 20.6282 115.097 20.863 114.87 20.9288C114.473 21.0421 114.044 21.0195 113.644 20.5443C113.473 20.3076 113.411 20.0782 113.421 19.8189C113.424 19.7921 113.43 19.7336 113.434 19.6801L114.549 7.21668C114.549 7.21668 112.463 7.21668 111.351 7.21668C110.856 7.22757 109.35 7.50958 109.072 9.4909C109.042 9.80646 108.996 10.3578 108.914 11.2941C108.832 12.2299 108.717 13.5574 108.619 14.7712C108.517 15.9827 108.422 17.0853 108.357 17.9082C108.287 18.7307 108.241 19.2744 108.222 19.5908C108.199 19.9073 108.199 19.8484 108.199 19.9073C108.074 20.7139 108.77 22.2921 110.967 22.2722H115.024C116.894 22.1466 117.459 21.491 117.622 21.3736C118.229 22.1162 119.039 22.2749 119.6 22.2749C119.6 22.2749 122.9 22.2804 123.012 22.2722C124.307 22.1584 125.645 21.627 126.97 20.2306C127.744 19.3704 128.141 18.4532 128.341 17.6262C128.394 17.4381 128.423 17.2631 128.446 17.0962C128.456 17.0359 128.463 16.9774 128.469 16.8958C128.476 16.8156 128.489 16.7131 128.515 16.4646C128.538 16.2148 128.568 15.8208 128.623 15.1557C128.682 14.4946 128.761 13.5697 128.814 12.8773C128.869 12.1886 128.909 11.7361 128.939 11.3539C128.961 10.9694 128.994 10.6557 129.004 10.4566C129.014 10.259 129.024 10.1774 129.03 10.1148C129.034 9.85183 129.004 9.74481 128.961 9.5272C128.846 9.01032 128.601 8.46035 128.043 7.96343C127.426 7.43474 126.784 7.22075 126.167 7.21668H124.078L123.028 19.9349C123.018 20.0542 122.985 20.2264 122.906 20.3734C122.788 20.6241 122.49 20.8594 122.273 20.9193C121.867 21.0381 121.443 21.0172 121.04 20.5416C120.873 20.304 120.811 20.0728 120.814 19.8148C120.82 19.7858 120.827 19.7295 120.837 19.6733C121.096 16.534 121.408 13.3915 121.667 10.2522Z" fill="white"/>
<path fill-rule="evenodd" clip-rule="evenodd" d="M84.768 7.19176C86.2346 7.11422 87.4382 7.59754 87.4709 8.27994C87.5073 8.95821 86.3625 9.55671 84.8994 9.63379C83.4661 9.70721 82.2656 9.23615 82.2263 8.55513C82.1934 7.87685 83.3351 7.26747 84.768 7.19176Z" fill="white"/>
<path fill-rule="evenodd" clip-rule="evenodd" d="M129.477 20.5484C129.49 21.5935 130.359 22.1748 130.907 22.2591C131.005 22.2804 134.318 22.2818 134.318 22.2818L135.273 11.067C134.584 11.0615 130.418 11.067 130.418 11.067C130.418 11.067 129.454 20.3852 129.477 20.5484Z" fill="white"/>
<path fill-rule="evenodd" clip-rule="evenodd" d="M133.029 7.19176C134.488 7.11422 135.692 7.59754 135.725 8.27994C135.768 8.95821 134.617 9.55671 133.154 9.63379C131.73 9.70721 130.523 9.23615 130.49 8.55513C130.448 7.87685 131.596 7.26747 133.029 7.19176Z" fill="white"/>
<path fill-rule="evenodd" clip-rule="evenodd" d="M43.499 7.21674C44.7388 7.21175 46.4148 7.50964 46.5952 9.45654C46.6442 9.80113 46.428 12.3597 46.3785 12.9164C46.3361 13.4745 45.7032 16.1999 43.023 16.2307H38.1819L37.6212 22.2818H34.5018C33.9901 22.2764 31.9402 21.6538 32.1007 19.3556C32.0976 19.0287 32.78 11.5689 32.888 10.4377C32.9539 8.90336 34.3445 7.12743 36.1976 7.21674H43.499ZM39.4119 14.7821C39.9267 14.8179 40.3695 14.4294 40.4126 13.9125C40.4126 13.9102 40.7109 9.53771 40.7109 9.53771C40.7271 9.28833 40.6484 9.04664 40.4813 8.85806C40.3271 8.66718 40.101 8.5538 39.8483 8.53613C39.6023 8.52024 39.3629 8.60054 39.1692 8.76331C38.9853 8.92924 38.8706 9.15728 38.851 9.40849L38.5524 13.7806C38.5197 14.2961 38.9005 14.7472 39.4119 14.7821Z" fill="white"/>
<path fill-rule="evenodd" clip-rule="evenodd" d="M101.528 7.21667C100.856 7.23302 99.9703 7.88996 99.8853 8.92916L99.0944 17.8665C98.806 20.0954 99.4193 22.259 102.112 22.2817H106.455L106.599 20.9782L105.15 20.9727C104.205 20.9782 103.805 20.7819 103.897 19.9005C103.897 19.9005 104.375 14.349 104.539 12.3863H107.446L107.501 11.0669H104.648L105.012 7.21667H101.528Z" fill="white"/>
<path fill-rule="evenodd" clip-rule="evenodd" d="M147.868 13.3543C147.75 12.8338 147.501 12.2847 146.946 11.7905C146.33 11.2605 145.687 11.0909 145.064 11.0909H143.345L141.925 11.071C141.744 11.071 141.213 11.0669 140.705 11.0696C138.616 11.0737 136.733 12.9526 136.533 14.9117C136.264 17.5436 136.001 20.4586 136.011 20.5506C136.027 21.5988 136.893 22.1987 137.444 22.2817C137.543 22.3053 140.859 22.2817 140.859 22.2817C140.859 22.2817 141.407 16.1572 141.705 13.1008C141.705 12.7159 142.013 12.4022 142.397 12.4022C142.781 12.4022 143.089 12.7159 143.089 13.1008L142.21 22.2817C142.21 22.2817 145.529 22.2867 145.634 22.2817C146.185 22.3066 147.147 21.8741 147.363 20.8498L147.714 16.7035C147.776 16.0143 147.809 15.5619 147.839 15.181C147.868 14.7979 147.891 14.4801 147.911 14.2797C147.921 14.0838 147.924 14.0031 147.924 13.9419C147.934 13.6748 147.911 13.5696 147.868 13.3543Z" fill="white"/>
<path fill-rule="evenodd" clip-rule="evenodd" d="M75.7876 8.79407C75.9711 7.87777 76.8107 7.21171 77.8476 7.2167H80.852C80.852 7.2167 79.9825 17.2404 79.9006 18.378L79.6941 20.5484C79.589 21.6271 78.7133 22.3003 77.8602 22.2818H71.9303C69.3915 22.1947 68.355 19.8297 68.5324 18.2125C68.5324 18.2125 68.844 14.8687 68.9158 14.4697C69.2667 11.4075 71.7333 11.0801 72.1893 11.067H75.5415C75.5415 11.067 75.7578 8.85801 75.7876 8.79407ZM74.7609 20.2492C74.7609 20.2319 75.4007 13.3131 75.4007 13.3131C75.43 13.1032 75.394 12.9191 75.2856 12.7441C75.0957 12.4689 74.8527 12.3637 74.5544 12.4344L74.5442 12.4358C74.3903 12.4625 74.1443 12.6706 74.0818 12.8669L74.08 12.8718C74.0424 12.9797 74.0326 13.0078 74.023 13.1485L73.3832 20.0206C73.357 20.236 73.3832 20.4187 73.4881 20.5951C73.6686 20.8685 73.8982 20.9728 74.2099 20.9156C74.4069 20.8953 74.6953 20.6083 74.728 20.3974C74.7311 20.3852 74.7609 20.2492 74.7609 20.2492Z" fill="white"/>
<path fill-rule="evenodd" clip-rule="evenodd" d="M155.939 8.79407C156.123 7.87777 156.966 7.21171 157.999 7.2167H161C161 7.2167 160.131 17.2404 160.052 18.378L159.846 20.5484C159.744 21.6271 158.862 22.3003 158.012 22.2818H152.079C149.543 22.1947 148.51 19.8297 148.687 18.2125C148.687 18.2125 148.999 14.8687 149.068 14.4697C149.419 11.4075 151.888 11.0801 152.334 11.067H155.696C155.696 11.067 155.909 8.85801 155.939 8.79407ZM154.912 20.2492C154.916 20.2319 155.552 13.3131 155.552 13.3131C155.582 13.1032 155.539 12.9191 155.434 12.7441C155.244 12.4689 155.001 12.3637 154.712 12.4344L154.699 12.4358C154.548 12.4625 154.296 12.6706 154.23 12.8669C154.188 12.9789 154.184 13.0057 154.175 13.1485L153.541 20.0206C153.512 20.236 153.538 20.4187 153.637 20.5951C153.817 20.8685 154.05 20.9728 154.358 20.9156C154.561 20.8953 154.847 20.6083 154.883 20.3974C154.886 20.3852 154.912 20.2492 154.912 20.2492Z" fill="white"/>
<path d="M15.7212 8.16781C16.5559 5.09772 17.8207 2.41692 19.2545 0.423659C19.6383 -0.099864 19.1082 -0.0318962 18.8515 0.0737589C17.564 0.582437 9.76514 4.13758 4.27886 11.8298C4.08467 12.0985 4.22673 12.5036 4.70236 12.2036C4.72025 12.1932 4.76254 12.1633 4.82822 12.1169C5.62093 11.5566 9.82049 8.58829 15.6502 8.44302C15.6587 8.40972 15.6677 8.37595 15.6768 8.34199C15.6923 8.28401 15.708 8.22541 15.7212 8.16781Z" fill="white"/>
<path d="M1.01281 21.7402L12.0147 18.5169C12.7579 18.2995 13.532 18.7378 13.7492 19.4978C13.962 20.2583 13.5258 21.0509 12.7871 21.2692H12.7849L1.78703 24.4934C1.04625 24.7108 0.265709 24.2707 0.0528339 23.5128C-0.155826 22.7512 0.271892 21.9579 1.01281 21.7402Z" fill="white"/>
<path d="M24.6273 21.3809C24.3687 21.5629 24.1037 21.8015 23.8089 22.0668C22.4889 23.2551 20.5732 24.9796 15.9689 24.5587C15.5531 24.5354 15.1863 24.5119 14.8458 24.4901C13.327 24.3927 12.335 24.3291 9.8833 24.47C6.726 24.6868 5.22126 25.4526 4.14662 26.2219C3.26365 26.8108 3.47034 27.1374 3.773 27.0548C3.84646 27.0343 3.93578 26.9994 4.0464 26.9562C4.43213 26.8054 5.07679 26.5535 6.2106 26.4592C7.47942 26.3938 9.43479 26.434 11.1856 26.4848L11.4254 26.4888C14.5632 26.5409 16.2184 26.5684 19.3601 25.9263C22.699 25.1234 24.5939 22.897 25.2137 21.6946C25.2137 21.6946 25.7333 20.6046 24.6273 21.3809Z" fill="white"/>
<path d="M19.0554 28.1749C18.9872 28.1915 18.9178 28.2093 18.846 28.2277C17.9446 28.4592 16.6797 28.7841 13.0011 27.9504C11.1103 27.5731 8.82126 27.4096 7.00768 28.1474C6.76122 28.2831 6.48806 28.53 6.95119 28.7042C7.14227 28.7485 7.3351 28.7935 7.53013 28.839L7.53126 28.8393C9.16793 29.2214 10.9597 29.6397 13.1745 29.9215C14.8669 30.1278 16.5321 29.9092 17.6361 29.4797C18.0536 29.3378 18.8174 29.0197 19.3224 28.6485C19.7501 28.3389 19.7084 27.9676 19.0554 28.1749Z" fill="white"/>
<path d="M3.36278 13.9511C8.78035 9.73411 13.6489 9.38595 15.4166 9.39879C14.972 11.3879 14.7633 13.3079 14.7718 15.0496C6.75178 16.1384 2.80972 19.5389 1.31538 20.8481C1.29011 20.8692 1.27216 20.8846 1.25595 20.8986C1.22799 20.9226 1.20519 20.9422 1.15885 20.9788C1.02958 21.0862 0.685185 21.2064 0.712163 20.7054C0.793801 19.4849 1.88923 15.3779 3.36278 13.9511Z" fill="white"/>
</svg>
