<svg width="89" height="104" viewBox="0 0 89 104" fill="none" xmlns="http://www.w3.org/2000/svg">
<path d="M55.2259 28.3151C58.1583 17.6721 62.6012 8.37864 67.6378 1.46869C68.9863 -0.346195 67.124 -0.110574 66.2222 0.255697C61.6994 2.01911 34.3034 14.3436 15.0309 41.0099C14.3488 41.9416 14.8478 43.3459 16.5186 42.3058C16.5815 42.2698 16.73 42.1662 16.9607 42.0053C19.7454 40.0629 34.4978 29.7727 54.9766 29.2691C55.0063 29.1537 55.0381 29.0366 55.0701 28.9189C55.1246 28.7179 55.1798 28.5148 55.2259 28.3151Z" fill="#1A2F43"/>
<path d="M3.55784 75.3661L42.2058 64.1919C44.8165 63.4382 47.5357 64.9577 48.2988 67.5923C49.0461 70.2288 47.514 72.9765 44.9191 73.7332H44.9112L6.27755 84.9105C3.67531 85.6642 0.933393 84.1386 0.185597 81.5112C-0.547392 78.8707 0.955112 76.1208 3.55784 75.3661Z" fill="#1A2F43"/>
<path d="M86.5119 74.1206C85.6033 74.7515 84.6722 75.5786 83.6369 76.4984C78.9998 80.6177 72.2705 86.5958 56.096 85.137C54.6357 85.0562 53.3468 84.9746 52.151 84.899C46.8155 84.5614 43.3308 84.3409 34.7184 84.8293C23.6273 85.5811 18.3414 88.2357 14.5664 90.9025C11.4647 92.9442 12.1907 94.0763 13.2539 93.79C13.512 93.719 13.8258 93.598 14.2143 93.4481C15.5694 92.9255 17.8339 92.0522 21.8168 91.7251C26.274 91.4984 33.1429 91.638 39.2931 91.8141L40.1355 91.8279C51.1582 92.0085 56.9728 92.1038 68.0089 89.8777C79.7377 87.0945 86.3944 79.3763 88.5716 75.2081C88.5716 75.2081 90.3969 71.4294 86.5119 74.1206Z" fill="#1A2F43"/>
<path d="M66.9387 97.6728C66.6991 97.7304 66.4551 97.7923 66.203 97.8562C63.0365 98.6587 58.5932 99.7848 45.6706 96.8949C39.0288 95.5867 30.9877 95.0201 24.6168 97.5778C23.7511 98.0482 22.7915 98.904 24.4184 99.508C25.0896 99.6613 25.767 99.8174 26.4521 99.9752L26.4561 99.9761C32.2054 101.301 38.4997 102.751 46.2797 103.728C52.2251 104.443 58.0747 103.685 61.9529 102.196C63.4193 101.704 66.1025 100.602 67.8765 99.3148C69.379 98.2414 69.2324 96.9545 66.9387 97.6728Z" fill="#1A2F43"/>
<path d="M11.8129 48.3639C30.8439 33.7449 47.9465 32.5379 54.156 32.5825C52.5942 39.4781 51.8612 46.1342 51.8908 52.172C23.7179 55.9466 9.8701 67.7348 4.62072 72.2733C4.53195 72.3465 4.46891 72.4 4.41196 72.4483C4.31374 72.5317 4.23363 72.5997 4.07085 72.7265C3.61674 73.0989 2.40694 73.5156 2.50171 71.7786C2.78849 67.5477 6.63656 53.3101 11.8129 48.3639Z" fill="#1A2F43"/>
</svg>
